<svg height='100px' width='100px'  fill="#212020" xmlns="http://www.w3.org/2000/svg" xmlns:xlink="http://www.w3.org/1999/xlink" xml:space="preserve" style="shape-rendering:geometricPrecision;text-rendering:geometricPrecision;image-rendering:optimizeQuality;" viewBox="0 0 0.333331 0.333331" x="0px" y="0px" fill-rule="evenodd" clip-rule="evenodd"><defs><style type="text/css">
   
    .fil0 {fill:#212020;fill-rule:nonzero}
   
  </style></defs><g><polygon class="fil0" points="0.0274055,0.137169 0.166795,0.0419409 0.305925,0.137268 0.298114,0.148717 0.166787,0.0587323 0.0352165,0.148618 "></polygon><path class="fil0" d="M0.256673 0.150898l-0.0896299 -0.0600354 -0.0881654 0.0602205 -0.00019685 0.0918701 0.0485039 3.93701e-006 0 -0.0671772c0,-0.00379134 0.00158661,-0.00725591 0.0041378,-0.00977559 0.00250787,-0.00247638 0.0059685,-0.00402756 0.00975197,-0.00402756l0.0453189 0 0 2.75591e-005 0.00100787 -3.93701e-006c0.0080748,-5.51181e-005 0.0187441,-0.000125984 0.0187441,0.0137795l0 0.0054252 0 0.061752 0.0500118 3.93701e-006 0.000515748 -0.092063z"></path><path class="fil0" d="M0.17085 0.076748l0.0966102 0.0647126 0.00308661 0.00207087 -1.9685e-005 0.00370866 -0.000574803 0.102665 -3.93701e-005 0.00688976 -0.00687795 0 -0.0638346 -3.93701e-006 -0.00694488 -3.93701e-006 0 -0.00691339 0 -0.0686693 0 -0.0054252c0,-1.9685e-005 -0.00273622,4.33071e-005 -0.00479921,5.51181e-005l-2.75591e-005 0 -0.00103543 3.93701e-006 0 2.75591e-005 -0.0453189 0 0 0.0740079 0 0.00691732 -0.00694488 0 -0.0623819 -3.93701e-006 -0.00692913 -3.93701e-006 1.1811e-005 -0.00691339 0.000220472 -0.102461 1.1811e-005 -0.00366929 0.003 -0.00205512 0.0950315 -0.0649094 0.00385827 -0.00263386 0.00389764 0.0026063z"></path><polygon class="fil0" points="0.065063,0.283 0.065063,0.26911 0.270437,0.26911 0.270437,0.283 "></polygon></g></svg>